<svg xmlns="http://www.w3.org/2000/svg" xmlns:xlink="http://www.w3.org/1999/xlink" width="300" zoomAndPan="magnify" viewBox="0 0 224.87999 225" height="300" preserveAspectRatio="xMidYMid meet" version="1.0"><defs><clipPath id="12e8af206e"><path d="M 22.488281 23.296875 L 201.640625 23.296875 L 201.640625 202.449219 L 22.488281 202.449219 Z M 22.488281 23.296875 " clip-rule="nonzero"/></clipPath><clipPath id="375baa5630"><path d="M 78.707031 78.769531 L 146.171875 78.769531 L 146.171875 146.230469 L 78.707031 146.230469 Z M 78.707031 78.769531 " clip-rule="nonzero"/></clipPath><clipPath id="67a28b6532"><path d="M 89.203125 78.769531 L 135.675781 78.769531 C 141.472656 78.769531 146.171875 83.464844 146.171875 89.261719 L 146.171875 135.738281 C 146.171875 141.535156 141.472656 146.230469 135.675781 146.230469 L 89.203125 146.230469 C 83.40625 146.230469 78.707031 141.535156 78.707031 135.738281 L 78.707031 89.261719 C 78.707031 83.464844 83.40625 78.769531 89.203125 78.769531 Z M 89.203125 78.769531 " clip-rule="nonzero"/></clipPath></defs><g clip-path="url(#12e8af206e)"><path fill="#c1ff72" d="M 22.488281 45.8125 L 22.488281 146.507812 C 22.488281 147.242188 22.523438 147.972656 22.597656 148.703125 C 22.667969 149.429688 22.773438 150.15625 22.917969 150.875 C 23.0625 151.59375 23.238281 152.300781 23.453125 153.003906 C 23.664062 153.707031 23.910156 154.394531 24.191406 155.070312 C 24.472656 155.75 24.785156 156.410156 25.128906 157.054688 C 25.476562 157.703125 25.851562 158.332031 26.257812 158.941406 C 26.667969 159.550781 27.101562 160.136719 27.566406 160.703125 C 28.03125 161.269531 28.523438 161.8125 29.042969 162.332031 C 29.558594 162.847656 30.101562 163.339844 30.667969 163.804688 C 31.234375 164.269531 31.824219 164.707031 32.433594 165.113281 C 33.042969 165.519531 33.671875 165.898438 34.316406 166.242188 C 34.960938 166.589844 35.625 166.902344 36.300781 167.183594 C 36.980469 167.460938 37.667969 167.707031 38.367188 167.921875 C 39.070312 168.132812 39.78125 168.3125 40.5 168.457031 C 41.21875 168.597656 41.941406 168.707031 42.671875 168.777344 C 43.402344 168.847656 44.132812 168.886719 44.863281 168.886719 L 118.429688 168.886719 L 158.851562 201.230469 C 159.261719 201.558594 159.710938 201.824219 160.199219 202.027344 C 160.6875 202.226562 161.191406 202.359375 161.714844 202.417969 C 162.238281 202.476562 162.757812 202.460938 163.277344 202.375 C 163.796875 202.285156 164.296875 202.128906 164.769531 201.898438 C 165.246094 201.671875 165.679688 201.382812 166.070312 201.03125 C 166.464844 200.679688 166.800781 200.28125 167.082031 199.835938 C 167.359375 199.386719 167.574219 198.910156 167.71875 198.40625 C 167.863281 197.898438 167.9375 197.382812 167.9375 196.855469 L 167.9375 168.886719 L 179.125 168.886719 C 179.859375 168.886719 180.589844 168.847656 181.320312 168.777344 C 182.046875 168.707031 182.773438 168.597656 183.492188 168.457031 C 184.210938 168.3125 184.917969 168.132812 185.621094 167.921875 C 186.320312 167.707031 187.011719 167.460938 187.6875 167.183594 C 188.367188 166.902344 189.027344 166.589844 189.671875 166.242188 C 190.320312 165.898438 190.949219 165.519531 191.558594 165.113281 C 192.167969 164.707031 192.753906 164.269531 193.320312 163.804688 C 193.886719 163.339844 194.429688 162.847656 194.949219 162.332031 C 195.464844 161.8125 195.957031 161.269531 196.421875 160.703125 C 196.886719 160.136719 197.324219 159.550781 197.730469 158.941406 C 198.136719 158.332031 198.515625 157.703125 198.859375 157.054688 C 199.203125 156.410156 199.519531 155.75 199.796875 155.070312 C 200.078125 154.394531 200.324219 153.707031 200.539062 153.003906 C 200.75 152.300781 200.929688 151.59375 201.070312 150.875 C 201.214844 150.15625 201.320312 149.429688 201.394531 148.703125 C 201.464844 147.972656 201.5 147.242188 201.5 146.507812 L 201.5 45.8125 C 201.5 45.082031 201.464844 44.347656 201.394531 43.621094 C 201.320312 42.890625 201.214844 42.167969 201.070312 41.449219 C 200.929688 40.730469 200.75 40.019531 200.539062 39.316406 C 200.324219 38.617188 200.078125 37.925781 199.796875 37.25 C 199.519531 36.574219 199.203125 35.910156 198.859375 35.265625 C 198.515625 34.617188 198.136719 33.992188 197.730469 33.382812 C 197.324219 32.773438 196.886719 32.183594 196.421875 31.617188 C 195.957031 31.050781 195.464844 30.507812 194.949219 29.992188 C 194.429688 29.472656 193.886719 28.980469 193.320312 28.515625 C 192.753906 28.050781 192.167969 27.613281 191.558594 27.207031 C 190.949219 26.800781 190.320312 26.425781 189.671875 26.078125 C 189.027344 25.734375 188.367188 25.421875 187.6875 25.140625 C 187.011719 24.859375 186.320312 24.613281 185.621094 24.398438 C 184.917969 24.1875 184.210938 24.007812 183.492188 23.867188 C 182.773438 23.722656 182.046875 23.617188 181.320312 23.542969 C 180.589844 23.472656 179.859375 23.4375 179.125 23.4375 L 44.863281 23.4375 C 44.132812 23.4375 43.402344 23.472656 42.671875 23.542969 C 41.941406 23.617188 41.21875 23.722656 40.5 23.867188 C 39.78125 24.007812 39.070312 24.1875 38.367188 24.398438 C 37.667969 24.613281 36.980469 24.859375 36.300781 25.140625 C 35.625 25.421875 34.960938 25.734375 34.316406 26.078125 C 33.671875 26.425781 33.042969 26.800781 32.433594 27.207031 C 31.824219 27.613281 31.234375 28.050781 30.667969 28.515625 C 30.101562 28.980469 29.558594 29.472656 29.042969 29.992188 C 28.523438 30.507812 28.03125 31.050781 27.566406 31.617188 C 27.101562 32.183594 26.667969 32.773438 26.257812 33.382812 C 25.851562 33.992188 25.476562 34.617188 25.128906 35.265625 C 24.785156 35.910156 24.472656 36.574219 24.191406 37.25 C 23.910156 37.925781 23.664062 38.617188 23.453125 39.316406 C 23.238281 40.019531 23.0625 40.730469 22.917969 41.449219 C 22.773438 42.167969 22.667969 42.890625 22.597656 43.621094 C 22.523438 44.347656 22.488281 45.082031 22.488281 45.8125 Z M 22.488281 45.8125 " fill-opacity="1" fill-rule="nonzero"/></g><g clip-path="url(#375baa5630)"><g clip-path="url(#67a28b6532)"><path fill="#c1ff72" d="M 78.707031 78.769531 L 146.171875 78.769531 L 146.171875 146.230469 L 78.707031 146.230469 Z M 78.707031 78.769531 " fill-opacity="1" fill-rule="nonzero"/></g></g></svg>